<svg width="16" height="17" viewBox="0 0 16 17" fill="none" xmlns="http://www.w3.org/2000/svg">
<path d="M14.4154 4.46911C13.4351 2.80205 11.8446 1.5724 9.94741 1.01488C8.05022 0.457362 5.97924 0.611025 4.1298 1.44654C3.12243 1.90163 2.20507 2.42548 1.44706 3.16293C0.124683 4.44943 0.0967099 6.67043 1.48032 7.89083C2.2045 8.52959 2.91022 8.93759 3.2267 9.97688C3.50358 10.8862 3.26674 11.7061 3.04334 12.575C2.55049 14.4919 3.92074 16.3066 5.88368 16.5607C6.80673 16.6801 7.75834 16.6435 8.69689 16.4446C10.6732 16.0257 12.4533 14.9167 13.6973 13.3293C14.9413 11.7419 15.5622 9.78716 15.4413 7.83831L15.2881 6.62771C15.189 5.84474 14.8883 5.10093 14.4154 4.46911V4.46911Z" fill="white"/>
</svg>
