<svg width="6" height="6" viewBox="0 0 6 6" fill="none" xmlns="http://www.w3.org/2000/svg">
<path d="M5.10457 3.11208C5.34516 3.13177 5.56029 2.95141 5.53571 2.71128C5.48655 2.23096 5.29216 1.76845 4.97046 1.37937C4.55205 0.873327 3.94814 0.527585 3.27596 0.409259C2.60378 0.290932 1.91128 0.408462 1.3329 0.739033C0.754519 1.06961 0.331518 1.58963 0.146012 2.19817C-0.0394942 2.8067 0.025729 3.46033 0.32902 4.03216C0.632311 4.604 1.15203 5.05324 1.78729 5.29268C2.42255 5.53212 3.12803 5.54468 3.76678 5.32792C4.25528 5.16215 4.67809 4.87129 4.98951 4.49274C5.14563 4.30296 5.05844 4.02904 4.83765 3.92115V3.92115C4.4118 3.71305 4.58849 3.06985 5.06088 3.10851L5.10457 3.11208Z" fill="white"/>
</svg>
